<?xml version="1.0" encoding="utf-8"?>
<!-- Generator: Adobe Illustrator 20.1.0, SVG Export Plug-In . SVG Version: 6.00 Build 0)  -->
<svg version="1.1" id="Layer_1" xmlns="http://www.w3.org/2000/svg" xmlns:xlink="http://www.w3.org/1999/xlink" x="0px" y="0px"
	 viewBox="0 0 320 550" style="enable-background:new 0 0 320 550;" xml:space="preserve">
<style type="text/css">
	.st0{fill:none;stroke:#0283FF;stroke-width:2;stroke-linecap:round;stroke-linejoin:round;stroke-miterlimit:10;}
	
		.st1{fill:none;stroke:#999999;stroke-width:2;stroke-linecap:round;stroke-linejoin:round;stroke-miterlimit:10;stroke-dasharray:0,4;}
	.st2{fill:#555555;}
</style>
<g id="body">
	<path class="st0" d="M261.8,16.9c28.7,35.1,37,83.2,33.8,128.4s-16.9,88.9-27.7,132.9c-4.2,16.9-6.6,34.3-12.4,50.7
		c-3.2,9.1-6.9,18.2-8.8,27.7c-2.3,11.6-2,23.5-2.3,35.2c-0.6,24.2-4.1,49.2,3.7,72.2c3.4,9.9,8.7,19,13.2,28.4
		c5.2,10.8,9.2,22.1,12.5,33.6"/>
	<path class="st0" d="M119.1,26.1c0.1,2.8,0.1,5.6-0.5,8.3c-1.3,6.1-5.6,11-9.6,15.8c-4.7,5.6-9.3,11.3-13.7,17.2
		c-24.2,32.3-42.8,68.9-54.5,107.6c-3.8,12.4-6.9,25.6-4,38.2c9.3,41.3-11.2,83.2-11.1,125.5c0,20.7,0.5,42,8.9,60.9
		c-9.3,29.4-11,60.4-6.2,90.9c1.9,11.9,4.6,23.7,7.9,35.3"/>
</g>
<g id="t1">
	<path class="st0" d="M191.7,21.2c-0.9-2.2-2.9-4-5.2-3.6c-2.3,0.4-4.2,2-6.1,3.4c-2.4,1.8-5.1,3.3-8,4.4c-2.1,0.8-4.6,1.8-5.2,4
		c-0.5,2.1,0.9,4,1.7,6c0.8,1.9,1.1,3.9,0.9,5.9c-0.1,0.6-0.2,1.3,0,1.9c0.5,1.7,2.9,1.7,4.6,1.3c6.8-1.5,13.4-3.9,19.6-7
		c0.7-0.4,1.5-0.8,1.9-1.6c0.3-0.7,0.2-1.4,0.1-2.2C195.3,29.4,193.7,25.2,191.7,21.2z"/>
	<path class="st0" d="M201.5,18c2.4,4.9,4.4,10.2,6.8,15.1c0.3,0.5,0.6,1.1,1.1,1.4c0.4,0.2,0.8,0.2,1.2,0.2
		c4.5-0.1,9.1-0.8,13.4,0.6c4.3,1.3,8.1,4.6,12.6,4.9c0.9,0.1,1.8,0,2.5-0.4c1.2-0.7,1.7-2.2,1.5-3.6c-0.2-1.4-0.9-2.6-1.8-3.6
		c-2.2-2.5-5.2-4.3-8.5-4.9c-2.1-0.4-4.2-0.4-6.2-0.8c-2.2-0.5-4.3-1.6-6.3-2.7c-2.8-1.5-5.5-3-8.3-4.4
		C207,18.4,204.1,17.5,201.5,18z"/>
	<line class="st1" x1="163.2" y1="38.5" x2="124.2" y2="38.5"/>
	<g>
		<path class="st2" d="M174.3,27.4h8.4v1.3h-3.5v8.8h-1.4v-8.8h-3.4V27.4z"/>
		<path class="st2" d="M185.9,27.4h1.4v10h-1.4V27.4z"/>
	</g>
</g>
<g id="t2">
	<path class="st0" d="M206.3,59c-1.4-5.5-3.2-10.9-5.7-16c-0.3-0.5-0.5-1.1-1-1.4c-0.8-0.5-1.8-0.3-2.7,0
		c-5.7,1.6-11.2,4.1-17.2,4.7c-2.2,0.2-4.8,0.4-6.1,2.1c-1.2,1.6-0.9,4-0.1,5.8c0.8,1.9,2,3.6,2.3,5.7c0.2,1.5-0.1,3.2,0.9,4.4
		c1.2,1.5,3.5,1.3,5.4,0.9c3.1-0.6,6.2-1.2,9.3-1.8C196.4,62.6,201.8,61.7,206.3,59z"/>
	<path class="st0" d="M247.8,68.2c0.8-1.9,0.2-4.5-1.1-6.1c-1.3-1.6-3.1-2.7-4.9-3.7c-6.3-3.7-12.6-7.4-18.9-11
		c-2.5-1.5-5.1-3-7.8-3.9c-0.2-0.1-0.5-0.2-0.7,0c-0.2,0.1-0.3,0.4-0.3,0.6c-0.2,1.5,0.4,3,1,4.4c1.2,2.7,2.3,5.5,3.5,8.2
		c0.5,1.3,1.1,2.6,2.2,3.6c2.4,2.1,6.1,1.2,9.3,1.6c4.4,0.6,7.8,3.8,11.6,6.1C243.4,69,246,69.6,247.8,68.2z"/>
	<line class="st1" x1="167.2" y1="59.5" x2="118.2" y2="59.5"/>
	<g>
		<path class="st2" d="M181.2,49.7h8.4V51H186v8.8h-1.4V51h-3.4V49.7z"/>
		<path class="st2" d="M192.8,58.4h3.8v1.4h-6.4v-0.1l0.6-0.7c0.9-1.2,1.7-2.2,2.3-3c0.6-0.8,0.9-1.4,1.1-1.8
			c0.2-0.4,0.3-0.8,0.3-1.2c0-0.6-0.2-1-0.5-1.4s-0.7-0.5-1.3-0.5c-0.4,0-0.8,0.1-1.2,0.4c-0.4,0.2-0.7,0.6-1.1,1v-1.8
			c0.8-0.6,1.6-1,2.4-1c0.9,0,1.6,0.3,2.2,0.9c0.6,0.6,0.9,1.3,0.9,2.2c0,0.4-0.1,0.8-0.2,1.3c-0.1,0.5-0.4,1-0.8,1.6
			s-1,1.4-1.8,2.4L192.8,58.4z"/>
	</g>
</g>
<g id="t3">
	<path class="st0" d="M214.2,83.2c1.4-0.1,2.1-2.1,2.1-3.4c0-1.4-0.7-2.7-1.3-3.9c-2.1-3.9-4.2-7.8-6.3-11.6
		c-0.2-0.4-0.5-0.9-0.9-1.1c-0.4-0.2-0.8-0.2-1.2-0.2c-2.5,0.2-4.8,1.4-7.1,2.3c-5.9,2.4-12.3,3.5-18.7,3.2c-0.5,0-1,0-1.4,0.2
		c-0.6,0.3-0.8,1-0.8,1.7c-0.1,3.1,2.9,5.4,3.6,8.4c0.6,2.7-0.5,5.8,1.2,8c1.6,2.1,4.8,1.8,7.3,1.3
		C198.6,86.6,206.3,84.7,214.2,83.2z"/>
	<path class="st0" d="M251.3,81.6c-2.1-1.4-3.3-1.6-5.6-2.2c-2.3-0.5-4.7-0.8-6.8-1.8c-2.5-1.2-4.4-3.4-6.5-5.2s-4.9-3.2-7.6-2.5
		c0.9,3.9,2.3,7.8,4.1,11.4c1.2,2.4,2.6,4.8,5,6.1c2.7,1.5,6.1,1.2,9.1,2.1c3.8,1.1,7.2,4,11.1,3.4c0.4-0.1,0.7-0.2,1-0.4
		c0.3-0.2,0.5-0.6,0.7-1C257.3,87.9,254.3,83.8,251.3,81.6z"/>
	<line class="st1" x1="171.2" y1="80.5" x2="105.2" y2="80.5"/>
	<g>
		<path class="st2" d="M189.8,71.9h8.4v1.3h-3.5v8.8h-1.4v-8.8h-3.4V71.9z"/>
		<path class="st2" d="M201.1,76.1L201.1,76.1c0.7,0,1.2-0.1,1.5-0.4c0.3-0.3,0.5-0.6,0.5-1.1c0-0.4-0.2-0.8-0.5-1.1
			c-0.3-0.3-0.7-0.4-1.3-0.4c-0.5,0-1.1,0.2-1.7,0.5v-1.4c0.6-0.3,1.2-0.4,1.9-0.4c0.9,0,1.7,0.2,2.2,0.7c0.5,0.5,0.8,1.1,0.8,2
			c0,0.5-0.1,0.9-0.3,1.3s-0.5,0.6-1,0.9c0.4,0.2,0.7,0.3,0.9,0.6c0.2,0.2,0.3,0.5,0.4,0.8c0.1,0.3,0.2,0.7,0.2,1
			c0,0.9-0.3,1.6-0.9,2.2s-1.3,0.9-2.2,0.9c-0.8,0-1.5-0.2-2.2-0.6v-1.6c0.8,0.5,1.5,0.7,2.2,0.7c0.5,0,0.9-0.1,1.2-0.4
			c0.3-0.3,0.4-0.7,0.4-1.1c0-0.4-0.1-0.7-0.4-1c-0.1-0.2-0.3-0.3-0.5-0.4c-0.2-0.1-0.6-0.2-1.1-0.2l-0.1,0V76.1z"/>
	</g>
</g>
<g id="t4">
	<path class="st0" d="M222.7,107.2c1.2-5,0.5-10.3-1.7-15c-0.6-1.3-1.3-2.5-2.5-3.1c-1.5-0.7-3.2-0.4-4.8,0c-7.9,1.7-16,2.8-24,3.2
		c-0.9,0-1.8,0.1-2.6,0.5c-1.3,0.8-1.7,2.5-1.4,3.9c0.2,1.5,0.9,2.8,1.4,4.2c0.8,2.2,1,4.7,0.6,7c-0.2,1.2-0.5,2.7,0.3,3.6
		c0.7,0.7,1.8,0.7,2.8,0.7c6.7-0.4,13.4-0.7,20.1-1.1c2-0.1,4.1-0.2,6.1-0.8C219.2,109.7,221,108.7,222.7,107.2z"/>
	<path class="st0" d="M257.5,110.5c-0.7-2.9-2.3-3.5-4.8-5.3s-5.2-3-7.6-4.8c-2.8-2.1-5.1-4.9-7.9-7c-0.3-0.2-0.6-0.4-1-0.5
		c-0.9-0.2-1.8,0.6-2.1,1.5c-0.3,0.9-0.1,1.9,0.1,2.8c0.9,4.1,1.7,8.1,2.6,12.2c0.2,0.7,0.3,1.4,0.7,2c0.9,1.3,2.7,1.6,4.2,2
		c3.6,0.8,7,2.5,9.8,4.8c1,0.9,2.1,1.9,3.5,1.9c1.9,0.1,3.4-1.7,3.7-3.6C259.1,114.6,258.2,112.3,257.5,110.5z"/>
	<line class="st1" x1="176.2" y1="104.5" x2="92.2" y2="104.5"/>
	<g>
		<path class="st2" d="M197.1,96.6h8.4v1.3H202v8.8h-1.4v-8.8h-3.4V96.6z"/>
		<path class="st2" d="M211,96.5h0.6v5.6h1.1v1.2h-1.1v3.3h-1.4v-3.3h-4.3v-0.6L211,96.5z M210.2,102.1v-2.9l-2.3,2.9H210.2z"/>
	</g>
</g>
<g id="t5">
	<path class="st0" d="M224.9,114.5c0.9-1.2-0.8-2.8-2.3-2.7s-2.8,1.2-4.1,1.9c-1.3,0.7-2.7,1-4.1,1.3c-5.9,1.2-12,1.4-18,0.6
		c-1.3-0.2-2.6-0.4-3.8-0.2c-1.3,0.2-2.5,0.8-3.1,2c-0.9,1.9,0.3,4,0.7,6.1c0.5,2.8-0.5,5.6-0.8,8.4c-0.1,0.8-0.1,1.7,0.3,2.4
		c0.3,0.6,0.9,1,1.6,1.3c2.2,1.1,4.6,1.1,7,1.1c7.6-0.1,15.2-1,22.7-2.6c3-0.6,6.5-1.9,7.2-4.9c0.3-1.1,0.1-2.2-0.1-3.3
		C227.4,122,226.3,118.3,224.9,114.5z"/>
	<path class="st0" d="M261,145.4c0.2-2-0.5-4-1.4-5.8c-1-2-3.1-3.1-4.8-4.5c-3.2-2.5-5.2-6.2-7.5-9.5c-2.3-3.3-5.3-6.5-9.2-7.6
		c-0.4,1.3,0.2,2.6,0.7,3.9c0.8,2.2,1.1,4.6,0.8,6.9c-0.2,1.7-0.7,3.5-0.2,5.2c0.3,1.2,1,2.2,1.8,3.1c2.9,3.1,7.1,4.8,9.6,8.2
		c1.4,1.9,2.4,4.5,4.6,5.1c1.5,0.4,3.2-0.3,4.1-1.6C260.4,147.5,261.3,146.9,261,145.4z"/>
	<line class="st1" x1="180.2" y1="129.5" x2="80.2" y2="129.5"/>
	<g>
		<path class="st2" d="M199.5,121.1h8.4v1.3h-3.5v8.8H203v-8.8h-3.4V121.1z"/>
		<path class="st2" d="M209.7,121.1h4.5v1.3H211v2.5c0.1,0,0.2,0,0.3,0c1,0,1.8,0.3,2.4,0.9c0.6,0.6,0.9,1.3,0.9,2.3
			c0,0.9-0.3,1.7-0.9,2.3c-0.6,0.6-1.4,0.9-2.4,0.9c-0.8,0-1.6-0.2-2.4-0.6v-1.5c0.7,0.5,1.4,0.7,2.1,0.7c0.6,0,1.1-0.2,1.5-0.5
			c0.4-0.4,0.6-0.8,0.6-1.3c0-0.5-0.2-1-0.7-1.3c-0.4-0.4-1-0.5-1.7-0.5c-0.6,0-1,0-1.2,0.1V121.1z"/>
	</g>
</g>
<g id="t6">
	<path class="st0" d="M226.3,162.1c1.6-7.2,2.5-14.8,2.4-22.2c0-1.4-0.4-3.3-1.8-3.4c-0.4-0.1-0.9,0.1-1.3,0.2
		c-2.3,0.8-4.4,2.2-6.8,3c-2.7,0.9-5.6,1-8.4,1.1c-4.8,0.1-9.6,0.3-14.3-0.7c-1.7-0.4-3.6-0.8-4.9,0.3c-1.6,1.4-0.7,4-0.3,6.1
		c0.5,2.5,0.3,5.1-0.6,7.4c-0.5,1.3-1.3,2.6-1.7,3.9s-0.3,3,0.6,4c1,1.1,2.7,1.3,4.2,1.4c5.9,0.4,11.8,0.6,17.7,0.6
		C216.2,163.9,221.4,163.6,226.3,162.1z"/>
	<path class="st0" d="M256.6,189.2c2.5-1.2,3.4-4.8,3.5-7.6c0-2.8-1.1-5.5-2.5-8s-3.1-4.7-4.5-7.2c-1.6-2.9-2.6-6.1-4.5-8.8
		c-1.6-2.3-3.7-4.3-4.9-6.8c-0.4-0.8-0.6-1.6-1.2-2.3c-0.5-0.7-1.4-1.2-2.2-1c-0.1,5.8-0.2,11.6-0.3,17.4c0,1,0,2.1,0.3,3.1
		c0.4,1.1,1.1,2,1.7,2.9c3.6,4.9,5.6,10.8,9.6,15.3C252.8,187.6,254.7,188.8,256.6,189.2z"/>
	<line class="st1" x1="182.2" y1="154.5" x2="71.2" y2="154.5"/>
	<g>
		<path class="st2" d="M200.3,147.2h8.4v1.3h-3.5v8.8h-1.4v-8.8h-3.4V147.2z"/>
		<path class="st2" d="M213.5,147.2l0.1-0.1l0.9,1.1c-0.8,0.5-1.4,1-1.9,1.6c-0.5,0.6-0.9,1.3-1.2,2.1c0.5-0.3,1.1-0.4,1.6-0.4
			c0.8,0,1.5,0.3,2,0.8c0.5,0.6,0.8,1.2,0.8,2.1c0,0.8-0.3,1.6-0.9,2.1c-0.6,0.6-1.3,0.9-2.2,0.9c-0.9,0-1.7-0.3-2.3-1
			c-0.6-0.7-0.9-1.5-0.9-2.6c0-0.8,0.1-1.6,0.4-2.4c0.3-0.8,0.7-1.5,1.3-2.2C211.9,148.5,212.6,147.8,213.5,147.2z M211.1,153.4
			c0,0.2-0.1,0.5-0.1,0.8c0,0.6,0.2,1,0.5,1.4c0.3,0.4,0.7,0.5,1.3,0.5c0.5,0,0.8-0.2,1.1-0.5c0.3-0.3,0.4-0.7,0.4-1.2
			c0-0.5-0.2-0.9-0.5-1.2c-0.3-0.3-0.7-0.4-1.3-0.4c-0.3,0-0.5,0-0.7,0.1C211.7,153,211.4,153.2,211.1,153.4z"/>
	</g>
</g>
<g id="t7">
	<path class="st0" d="M223.6,191.7c2.1-5,3.5-10.6,4-16c0.2-2.4,0.3-4.8,0-7.2c0-0.4-0.1-0.8-0.5-1c-0.3-0.1-0.6-0.1-0.8,0
		c-11.1,3-22.9,3.3-34.2,0.9c-0.9-0.2-1.9-0.4-2.7,0c-1.7,0.8-1.5,3.2-1.5,5c0,4.1-2.2,7.9-2.9,11.9c-0.1,0.6-0.2,1.3,0,1.9
		c0.4,1.9,2.7,2.7,4.6,3.1C200.7,192.8,212.3,192.2,223.6,191.7z"/>
	<path class="st0" d="M251.9,207.2c-3.4-4-2.3-9.3-4-14.3c-0.8-2.3-2.1-4.3-3.4-6.3c-1.9-2.9-3.9-5.9-5.8-8.8
		c-0.6,4.6-1.1,9.2-1.4,13.8c-0.1,1.8-0.2,3.6,0.2,5.4c0.9,3.6,3.8,6.4,5.2,9.9c1,2.7,1.1,5.7,1.7,8.5c0.6,2.8,2.2,5.7,4.9,6.7
		c1,0.3,2.1,0.3,3-0.1c1.2-0.7,1.8-2.1,2.1-3.5C255.3,214.5,254.2,210.3,251.9,207.2z"/>
	<line class="st1" x1="180.2" y1="177.5" x2="64.2" y2="177.5"/>
	<g>
		<path class="st2" d="M197.7,176.4h8.4v1.3h-3.5v8.8h-1.4v-8.8h-3.4V176.4z"/>
		<path class="st2" d="M207.1,176.4h6.5l-4.5,10.2l-1.3-0.5l3.7-8.2h-4.3V176.4z"/>
	</g>
</g>
<g id="t8">
	<path class="st0" d="M219.1,216.7c1.9-5.2,3.1-10.3,3.7-15.8c0.1-0.8,0.1-1.6-0.4-2.2c-0.6-0.7-1.5-0.7-2.4-0.7
		c-11.2,0.1-22.7,0.7-33-3.6c-1.1-0.5-2.6-1-3.5-0.1c-0.5,0.4-0.6,1.1-0.7,1.8c-0.6,3.9-1.2,8.1-3.4,11.4c-0.9,1.3-2.1,2.6-1.9,4.2
		c0.2,2.1,2.6,3,4.6,3.5C194.2,217.9,206.8,218.7,219.1,216.7z"/>
	<path class="st0" d="M237.3,211.1c-0.9-1.3-1.5-1.9-2.5-1.2c-0.9,0.7-1.1,2-1.3,3.2c-0.3,2.1-0.8,4.2-1.6,6.2c-0.7,2-1.6,4-1.2,6
		c0.5,2.2,2.5,3.7,4.1,5.4c1.7,1.8,2.9,3.9,3.7,6.2c0.6,2,0.9,4,1.8,5.9c0.9,1.9,2.6,3.5,4.7,3.4c2.3-0.1,4.1-2.4,4.3-4.7
		c0.3-2.3-0.6-4.6-1.4-6.8C244.8,226.7,241.2,218.8,237.3,211.1z"/>
	<line class="st1" x1="55.2" y1="205.5" x2="174.2" y2="205.5"/>
	<g>
		<path class="st2" d="M191.3,202.9h8.4v1.3h-3.5v8.8h-1.4v-8.8h-3.4V202.9z"/>
		<path class="st2" d="M200.7,205.6c0-0.8,0.3-1.5,0.9-2c0.6-0.5,1.3-0.8,2.2-0.8c0.8,0,1.5,0.3,2.1,0.8c0.6,0.5,0.9,1.2,0.9,2
			c0,0.9-0.4,1.6-1.3,2.2c0.9,0.5,1.4,1.3,1.4,2.4c0,0.8-0.3,1.5-0.9,2.1c-0.6,0.5-1.4,0.8-2.3,0.8c-0.9,0-1.7-0.3-2.3-0.8
			c-0.6-0.6-0.9-1.2-0.9-2.1c0-1,0.5-1.8,1.4-2.4c-0.4-0.3-0.7-0.7-0.9-1C200.7,206.4,200.7,206,200.7,205.6z M205.4,210.2v-0.1
			c0-0.5-0.2-0.8-0.5-1.1c-0.3-0.3-0.8-0.4-1.3-0.4c-0.5,0-0.9,0.1-1.3,0.4c-0.3,0.3-0.5,0.7-0.5,1.1s0.2,0.8,0.5,1.1
			s0.8,0.4,1.3,0.4c0.5,0,0.9-0.1,1.2-0.4C205.2,211,205.4,210.7,205.4,210.2z M205.3,205.6c0-0.4-0.1-0.8-0.5-1.1
			c-0.3-0.3-0.7-0.4-1.1-0.4c-0.5,0-0.8,0.1-1.1,0.4s-0.4,0.6-0.4,1.1c0,0.4,0.2,0.8,0.5,1.1c0.3,0.3,0.7,0.4,1.1,0.4
			c0.4,0,0.8-0.1,1.1-0.4C205.1,206.4,205.3,206,205.3,205.6z"/>
	</g>
</g>
<g id="t9">
	<path class="st0" d="M210.7,243.8c2.6-5,4.7-10.3,6-15.8c0.2-0.8,0.3-1.7-0.2-2.3c-0.4-0.4-1-0.6-1.5-0.7
		c-5.5-1.1-11.3-0.3-16.9-0.7c-6.5-0.5-12.8-2.5-19.3-3.1c-1.2-0.1-2.5-0.1-3.5,0.5c-2.3,1.4-2,4.7-2.7,7.3
		c-0.5,1.9-1.8,3.6-2.5,5.5c-0.8,1.9-0.9,4.2,0.4,5.7c1.1,1.2,2.7,1.5,4.3,1.7c10.9,1.6,21.6,2,32.6,2.4
		C208.6,244.3,209.5,244.4,210.7,243.8z"/>
	<path class="st0" d="M229.8,235.6c-3,5.3-4.2,10.9-4.1,17c0,0.9,0.1,1.8,0.5,2.5c0.8,1.5,2.6,2.1,4,2.9c3.8,2.3,5.6,7.4,9.6,9.2
		c0.8,0.4,1.7,0.6,2.5,0.3c1.2-0.4,1.9-1.8,2.1-3.1c0.5-3.5-1.2-7-3.2-10c-2.1-2.9-4.5-5.6-5.9-8.9
		C233.8,241.9,233.3,237.6,229.8,235.6z"/>
	<line class="st1" x1="52.2" y1="232.5" x2="167.2" y2="232.5"/>
	<g>
		<path class="st2" d="M184.2,228.8h8.4v1.3h-3.5v8.8h-1.4v-8.8h-3.4V228.8z"/>
		<path class="st2" d="M195.6,239l-0.9-1c0.7-0.5,1.4-1,1.9-1.7c0.6-0.7,0.9-1.4,1.1-2.1c-0.5,0.3-1,0.4-1.6,0.4
			c-0.8,0-1.4-0.3-2-0.9c-0.5-0.6-0.8-1.3-0.8-2.1c0-0.8,0.3-1.5,0.9-2.1s1.3-0.9,2.1-0.9c0.9,0,1.7,0.3,2.3,1
			c0.6,0.7,0.9,1.6,0.9,2.6c0,1.2-0.4,2.4-1.1,3.7C197.8,237.3,196.8,238.3,195.6,239z M198.1,232.7c0.1-0.4,0.1-0.6,0.1-0.7
			c0-0.6-0.2-1.1-0.5-1.4c-0.3-0.4-0.7-0.6-1.2-0.6c-0.5,0-0.9,0.2-1.2,0.5c-0.3,0.3-0.5,0.7-0.5,1.2c0,0.4,0.2,0.8,0.5,1.1
			c0.3,0.3,0.7,0.5,1.2,0.5C197,233.3,197.6,233.1,198.1,232.7z"/>
	</g>
</g>
<g id="t10">
	<path class="st0" d="M203.8,273.3c3.5-6.2,5.6-13.4,6.4-20.5c0.1-0.7,0.1-1.4-0.3-1.9c-0.5-0.7-1.5-0.8-2.3-0.8
		c-4.6-0.1-9.2-0.3-13.8-0.4c-3.9-0.1-7.9-0.3-11.7-1c-4.1-0.8-8.2-2.3-12.4-2c-0.6,0-1.3,0.2-1.7,0.7c-0.3,0.4-0.4,0.9-0.4,1.3
		c-0.3,2.2,0,4.5-0.5,6.7c-0.9,3.5-3.7,6.3-4.3,9.9c-0.1,0.6-0.2,1.3,0.1,1.9c0.2,0.5,0.7,0.8,1.1,1.1c3.4,2.4,7.8,3,12,3.4
		C185.1,272.6,194.4,273,203.8,273.3z"/>
	<path class="st0" d="M237.3,276.8c-2.8-5.5-7.5-9.8-13.1-12.3c-0.5-0.2-1-0.4-1.5-0.4c-0.5,0.1-1,0.4-1.4,0.8
		c-1.5,1.5-2.1,3.6-2.6,5.7c-0.7,2.7-1.4,5.3-1.4,8.1c0,0.7,0,1.4,0.4,2.1c0.4,0.7,1.1,1.1,1.8,1.5c3.7,2.1,7.6,3.7,11.6,5
		c1.5,0.5,3.3,0.9,4.6,0c0.8-0.5,1.3-1.4,1.7-2.2C238.5,282.4,238.5,279.4,237.3,276.8z"/>
	<line class="st1" x1="52.2" y1="260.5" x2="160.2" y2="260.5"/>
	<g>
		<path class="st2" d="M174.2,255.7h8.4v1.3h-3.5v8.8h-1.4v-8.8h-3.4V255.7z"/>
		<path class="st2" d="M185.9,255.7h1.4v10h-1.4V255.7z"/>
		<path class="st2" d="M194,255.5c0.9,0,1.7,0.5,2.3,1.4c0.6,1,0.9,2.2,0.9,3.7c0,1.5-0.3,2.8-0.9,3.7c-0.6,1-1.4,1.4-2.3,1.4
			c-1,0-1.8-0.5-2.3-1.4c-0.6-0.9-0.9-2.2-0.9-3.7c0-1.5,0.3-2.8,0.9-3.7C192.2,256,193,255.5,194,255.5z M194,256.9L194,256.9
			c-0.6,0-1.1,0.3-1.4,1c-0.3,0.7-0.5,1.6-0.5,2.8c0,1.2,0.2,2.1,0.5,2.8c0.3,0.7,0.8,1,1.3,1s1-0.3,1.3-1c0.3-0.7,0.5-1.6,0.5-2.8
			c0-1.2-0.2-2.1-0.5-2.8C194.9,257.3,194.5,256.9,194,256.9z"/>
	</g>
</g>
<g id="t11">
	<path class="st0" d="M197.5,304.3c0.8-7.2,2.3-14.5,3.7-21.7c0.1-0.6,0.2-1.3-0.1-1.8c-0.3-0.5-1-0.6-1.5-0.7
		c-3.8-0.6-7.8-0.2-11.7-0.2c-7.3,0-14.7-1.4-21.5-4c-1.7-0.7-3.7-1.4-5.4-0.7c-1.6,0.7-2.5,2.6-2.7,4.3c-0.2,1.8,0,3.6-0.3,5.3
		c-0.6,3.4-2.9,6.3-3,9.7c0,1.1,0.2,2.3,1,3c0.5,0.6,1.3,0.9,2,1.2C170.3,303.6,184.2,304.6,197.5,304.3z"/>
	<path class="st0" d="M233.9,307.3c-4.2-4.4-7.8-8.2-12-12.5c-1.2-1.2-2.5-2.5-4.2-2.5c-2.3,0-3.8,2.3-4.9,4.4
		c-1.3,2.7-2.6,5.5-2.5,8.5c0,1.2,0.3,2.3,1,3.3c0.5,0.6,1.1,1.1,1.7,1.6c3.3,2.5,6.6,4.8,10.2,6.9c2.5,1.5,5.5,2.9,8.1,1.8
		c2-0.8,3.2-2.9,3.5-5C235.1,311.5,234.6,309.3,233.9,307.3z"/>
	<line class="st1" x1="52.2" y1="289.5" x2="152.2" y2="289.5"/>
	<g>
		<path class="st2" d="M166.5,286.2h8.4v1.3h-3.5v8.8h-1.4v-8.8h-3.4V286.2z"/>
		<path class="st2" d="M178.1,286.2h1.4v10h-1.4V286.2z"/>
		<path class="st2" d="M185.4,286.2h1.4v10h-1.4V286.2z"/>
	</g>
</g>
<g id="t12">
	<path class="st0" d="M187.1,337.8c3.9-7.5,6.2-15.9,6.9-24.4c0-0.5,0.1-1.1-0.2-1.6c-0.3-0.6-1-0.8-1.7-1c-2.6-0.7-5.3-0.9-8-1.2
		c-10.3-0.9-20.8-2.3-29.8-7.4c-0.4-0.2-0.9-0.4-1.3-0.3c-0.3,0.1-0.4,0.4-0.5,0.7c-1.2,2.6-0.6,5.6-0.8,8.4
		c-0.5,5.6-4.4,10.3-6.3,15.6c-0.3,0.9-0.6,1.9-0.1,2.7c0.5,0.9,1.6,1.2,2.6,1.4c5.5,1.3,11,2.6,16.5,3.9
		C171.9,336.5,179.4,338.2,187.1,337.8"/>
	<path class="st0" d="M202.4,342c-0.8-6.8,1.8-13.1,5.9-18.5c0.2-0.3,0.5-0.6,0.9-0.7c0.4-0.1,0.9,0.2,1.2,0.5c2,1.7,3.6,4,5.7,5.7
		c2.8,2.3,6.6,3.5,8.9,6.4c1.7,2.2,2.3,5.1,2.1,7.8c-0.2,2.7-1.2,5.4-2.3,7.9c-0.4,0.8-0.8,1.7-1.5,2.3c-0.7,0.5-1.5,0.8-2.4,0.8
		c-3.1,0.2-5.9-1.6-8.4-3.4c-2.7-1.9-5.3-3.8-8-5.6C203.6,344.6,202.8,343.4,202.4,342z"/>
	<line class="st1" x1="43.2" y1="319.5" x2="143.2" y2="319.5"/>
	<g>
		<path class="st2" d="M158,317.2h8.4v1.3h-3.5v8.8h-1.4v-8.8H158V317.2z"/>
		<path class="st2" d="M169.7,317.2h1.4v10h-1.4V317.2z"/>
		<path class="st2" d="M177.1,325.9h3.8v1.4h-6.4v-0.1l0.6-0.7c0.9-1.2,1.7-2.2,2.3-3c0.6-0.8,0.9-1.4,1.1-1.8
			c0.2-0.4,0.3-0.8,0.3-1.2c0-0.6-0.2-1-0.5-1.4c-0.3-0.3-0.7-0.5-1.3-0.5c-0.4,0-0.8,0.1-1.2,0.4c-0.4,0.2-0.7,0.6-1.1,1V318
			c0.8-0.6,1.6-1,2.4-1c0.9,0,1.6,0.3,2.2,0.9c0.6,0.6,0.9,1.3,0.9,2.2c0,0.4-0.1,0.8-0.2,1.3c-0.1,0.5-0.4,1-0.8,1.6
			s-1,1.4-1.8,2.4L177.1,325.9z"/>
	</g>
</g>
<g id="l1">
	<path class="st0" d="M177.6,369.9c1.1-6.4,2.2-13.2,5.4-18.8c0.6-1.1,1.4-2.3,1.2-3.5c-0.4-1.9-2.7-2.6-4.7-2.8
		c-8.9-1.1-18.2-1-26.5-4.3c-3.4-1.3-6.7-3.2-10.4-3.1c-1.2,7.5-3.4,14.8-6.6,21.7c-0.4,0.8-0.8,1.7-0.7,2.6
		c0.2,1.4,1.5,2.3,2.7,2.9C149.9,370.8,164.3,370.4,177.6,369.9"/>
	<path class="st0" d="M219.4,361.3c-5.2-0.1-10.3-2.5-13.7-6.3c-0.6-0.7-1.3-1.5-2.1-1.9c-0.8-0.4-2-0.5-2.6,0.2
		c-0.3,0.3-0.4,0.8-0.6,1.2c-1.4,4.5-2.7,9-4.1,13.5c-0.3,1-0.6,2.1-0.5,3.2c0.3,1.6,1.6,2.8,3.1,3.6c2.7,1.4,6,1.7,8.8,3
		c3.3,1.5,6.4,4.3,9.9,3.4c1.8-0.4,3.3-1.8,4.2-3.5c0.9-1.6,1.3-3.5,1.7-5.3c0.4-2.2,0.8-4.4,0.3-6.6
		C223.2,363.7,221.5,361.6,219.4,361.3z"/>
	<line class="st1" x1="45.2" y1="351.5" x2="135.2" y2="351.5"/>
	<g>
		<path class="st2" d="M153.9,351.3h1.4v8.7h4.5v1.3h-6V351.3z"/>
		<path class="st2" d="M163,351.3h1.4v10H163V351.3z"/>
	</g>
</g>
<g id="l2">
	<path class="st0" d="M171.3,400.9c0.8-4.1,1.4-8.1,2.3-12.2c0.7-3.7,1.5-7.4,1.3-11.1c-10.9-0.1-22-0.2-32.3-3.6
		c-2.2-0.7-4.4-1.6-6.7-2.2c-0.6-0.2-1.3-0.3-1.9-0.1c-1.1,0.3-1.8,1.6-2,2.7c-0.6,3,0.6,6,0.3,9.1c-0.4,3.4-2.5,6.2-3.6,9.4
		c-0.5,1.4-0.7,2.9,0,4.2c0.6,1.1,1.9,1.7,3.1,2.1c4.4,1.6,9.2,2.1,13.9,2.5c6.3,0.6,12.7,1,19,1.4
		C167.2,403.2,170.1,403.2,171.3,400.9"/>
	<path class="st0" d="M212.3,389c-3.3-1-5.9-1.7-9.2-2.7c-2.4-0.7-4.8-1.5-7.2-1.6c-1.1,0-2.3,0.1-3.2,0.6c-1.2,0.7-1.9,2-2.5,3.3
		c-1.5,3.6-2.3,7.4-2.4,11.3c0,1.1,0,2.4,0.7,3.3c0.8,1.1,2.3,1.5,3.7,1.8c4.3,1,8.7,1.9,13,2.9c1.2,0.3,2.4,0.5,3.6,0.4
		c2.8-0.3,5-2.7,5.9-5.4c0.9-2.7,0.7-5.5,0.6-8.3C215.1,392.4,214.5,389.6,212.3,389z"/>
	<line class="st1" x1="48.2" y1="386.5" x2="127.2" y2="386.5"/>
	<g>
		<path class="st2" d="M145.5,384h1.4v8.7h4.5v1.3h-6V384z"/>
		<path class="st2" d="M154.7,392.7h3.8v1.4h-6.4V394l0.6-0.7c0.9-1.2,1.7-2.2,2.3-3c0.6-0.8,0.9-1.4,1.1-1.8
			c0.2-0.4,0.3-0.8,0.3-1.2c0-0.6-0.2-1-0.5-1.4c-0.3-0.3-0.7-0.5-1.3-0.5c-0.4,0-0.8,0.1-1.2,0.4c-0.4,0.2-0.7,0.6-1.1,1v-1.8
			c0.8-0.6,1.6-1,2.4-1c0.9,0,1.6,0.3,2.2,0.9c0.6,0.6,0.9,1.3,0.9,2.2c0,0.4-0.1,0.8-0.2,1.3c-0.1,0.5-0.4,1-0.8,1.6
			c-0.4,0.6-1,1.4-1.8,2.4L154.7,392.7z"/>
	</g>
</g>
<g id="l3">
	<path class="st0" d="M171,432.3c0.2-7.2,0.9-13.5-0.3-20.6c-0.1-0.8-0.3-1.8-1-2.3c-0.4-0.4-1-0.5-1.6-0.6
		c-11.2-1.9-22.9,0.8-33.9-1.9c-2.2-0.5-4.8-1.2-6.4,0.4c-1,1-1.2,2.5-1.3,3.9c-0.2,4.5,0.8,9.1-0.2,13.5c-0.3,1.4-0.8,2.8-1,4.3
		s0.1,3.1,1.2,4.1c0.8,0.8,1.9,1.1,3,1.3c5,1,10.2,0.8,15.4,0.6c8-0.3,10.5-0.4,18.5-0.7C164.8,434.1,170.5,433.4,171,432.3"/>
	<path class="st0" d="M202.4,411.8c-4.1-1.3-6.9-1.6-11.3-1.9c-0.5,0-1.1-0.1-1.6,0.3c-0.5,0.4-0.7,1-0.8,1.7
		c-1.4,7-1.3,14.2,0.4,21.1c0.1,0.6,2,1.2,2.9,1.5c4.4,1.6,9,3.2,13.7,2.8s9.5-2,10.4-6.6c0.3-1.5,0.2-3.2-0.1-4.7
		c-0.6-3.5-1.7-7-3.9-9.8S206,412.8,202.4,411.8z"/>
	<line class="st1" x1="52.2" y1="423.5" x2="121.2" y2="423.5"/>
	<g>
		<path class="st2" d="M142.3,416.5h1.4v8.7h4.5v1.3h-6V416.5z"/>
		<path class="st2" d="M151.1,420.7L151.1,420.7c0.7,0,1.2-0.1,1.5-0.4c0.3-0.3,0.5-0.6,0.5-1.1c0-0.4-0.2-0.8-0.5-1.1
			c-0.3-0.3-0.7-0.4-1.3-0.4c-0.5,0-1.1,0.2-1.7,0.5v-1.4c0.6-0.3,1.2-0.4,1.9-0.4c0.9,0,1.7,0.2,2.2,0.7c0.5,0.5,0.8,1.1,0.8,2
			c0,0.5-0.1,0.9-0.3,1.3c-0.2,0.3-0.5,0.6-1,0.9c0.4,0.2,0.7,0.3,0.9,0.6c0.2,0.2,0.3,0.5,0.4,0.8c0.1,0.3,0.2,0.7,0.2,1
			c0,0.9-0.3,1.6-0.9,2.2c-0.6,0.6-1.3,0.9-2.2,0.9c-0.8,0-1.5-0.2-2.2-0.6v-1.6c0.8,0.5,1.5,0.7,2.2,0.7c0.5,0,0.9-0.1,1.2-0.4
			c0.3-0.3,0.4-0.7,0.4-1.1c0-0.4-0.1-0.7-0.4-1c-0.1-0.2-0.3-0.3-0.5-0.4c-0.2-0.1-0.6-0.2-1.1-0.2l-0.1,0V420.7z"/>
	</g>
</g>
<g id="l4">
	<path class="st0" d="M175.7,464.3c2.5-0.6,2-5.4,0.9-8.4c-1.5-4.2-3.1-8.4-4.6-12.6c-0.3-0.8-0.6-1.5-1.2-2.1
		c-1.3-1.2-3.3-0.8-5-0.4c-11.3,2.7-23,3.7-34.5,3c-1.1-0.1-2.2-0.2-3.2,0.1c-1,0.3-2,1-2.3,2.1c-0.4,1.5,0.7,2.9,1.4,4.2
		c2.9,5.1,1.3,11.5,1.5,17.4c0,1,0.2,2.2,1,2.8c0.7,0.6,1.8,0.5,2.7,0.4c11-1.1,21.8-4.1,32.8-4.4C169,466.2,172,465.3,175.7,464.3z
		"/>
	<path class="st0" d="M213.1,443.3c-6.1-1.2-11.5-1.8-17.8-2c-0.8,0-1.7,0-2.5,0.4c-1.6,1-1.3,3.3-0.9,5.1c0.6,2.4,1.2,4.8,1.8,7.2
		c0.6,2.2,1.2,4.5,2.7,6.1c1.7,1.8,4.4,2.5,6.9,2.8c2.5,0.3,5.1,0.1,7.6,0.8c1.9,0.5,3.6,1.3,5.5,1.7c1.9,0.4,4,0.3,5.5-0.9
		c1-0.9,1.5-2.2,1.9-3.5c1.3-4.4,1.2-9.6-1.7-13.2C219.8,444.9,216.9,443.9,213.1,443.3z"/>
	<line class="st1" x1="46.2" y1="459.5" x2="123.2" y2="459.5"/>
	<g>
		<path class="st2" d="M146.7,451.4v8.5h4.9v1.5h-6.8v-10H146.7z"/>
		<path class="st2" d="M158,451.3v5.9h0.9v1.5H158v2.8h-1.8v-2.8H152v-1.2l4.9-6.2H158z M156.1,454.3l-2.2,2.8h2.3L156.1,454.3
			L156.1,454.3z"/>
	</g>
</g>
<g id="l5">
	<path class="st0" d="M185.5,499c1.9-1.9,2-5.3,0.8-7.6c-1.2-2.4-3.2-4.3-4.4-6.6c-1.9-3.7-1.6-8.2-2.9-12.2c-0.3-1-0.9-2.1-1.8-2.6
		c-0.8-0.4-1.7-0.2-2.6-0.1c-14.4,2.6-27.8,9.6-42.3,10.9c-0.4,0-0.8,0.1-1.1,0.3c-0.4,0.3-0.4,1-0.3,1.5c0.6,3.2,3.8,5.2,5.6,8
		c3.3,4.9,1.9,11.5,3,17.4c0.1,0.8,0.3,1.5,0.8,2.1c0.8,1,2.1,1.5,3.4,1.4c1.3-0.1,2.5-0.5,3.7-1C160,505.6,172.1,501.4,185.5,499"
		/>
	<path class="st0" d="M214.4,471.8c-3.9-1.2-8-1.9-12.1-2.1c-1.1-0.1-2.3,0-3.2,0.7c-0.9,0.7-1.1,2-0.9,3.1c0.2,1.1,0.7,2.1,1.2,3.1
		c0.9,2,1.5,4.2,1.9,6.4c0.2,1.5,0.4,3,1.2,4.3c0.6,0.9,1.5,1.5,2.3,2.1c6.3,4.1,13.7,6.6,21.2,7.1c0.4,0,0.9,0,1.3-0.1
		c0.5-0.2,0.9-0.6,1.2-1.1c2.4-3.3,3.2-7.7,2.1-11.6c-1.1-3.9-4.2-7.2-8-8.7C219.9,473.8,216.7,473.6,214.4,471.8z"/>
	<line class="st1" x1="55.2" y1="498.5" x2="132.2" y2="498.5"/>
	<g>
		<path class="st2" d="M153.4,485.8h1.4v8.7h4.5v1.3h-6V485.8z"/>
		<path class="st2" d="M161,485.8h4.5v1.3h-3.1v2.5c0.1,0,0.2,0,0.3,0c1,0,1.8,0.3,2.4,0.9c0.6,0.6,0.9,1.3,0.9,2.3
			c0,0.9-0.3,1.7-0.9,2.3c-0.6,0.6-1.4,0.9-2.4,0.9c-0.8,0-1.6-0.2-2.4-0.6v-1.5c0.7,0.5,1.4,0.7,2.1,0.7c0.6,0,1.1-0.2,1.5-0.5
			c0.4-0.4,0.6-0.8,0.6-1.3c0-0.5-0.2-1-0.7-1.3c-0.4-0.4-1-0.5-1.7-0.5c-0.6,0-1,0-1.2,0.1V485.8z"/>
	</g>
</g>
</svg>
